<svg width="64" height="64" viewBox="0 0 64 64" fill="none" xmlns="http://www.w3.org/2000/svg">
<path d="M0 13C0 5.8203 5.8203 0 13 0H51C58.1797 0 64 5.8203 64 13V51C64 58.1797 58.1797 64 51 64H13C5.8203 64 0 58.1797 0 51V13Z" fill="white"/>
<path fill-rule="evenodd" clip-rule="evenodd" d="M40.1252 13.8774C38.9738 14.4511 38.1098 15.4184 37.4789 16.5147C36.4648 14.7542 34.8526 13.3262 32.4107 13.3262C29.9676 13.3262 26.9727 15.4671 26.9727 19.0836C26.9727 22.7451 29.9315 24.4806 31.3968 25.4606C32.9633 26.5072 35.636 28.4102 37.4789 31.9316C39.3223 28.4102 41.9949 26.5072 43.5615 25.4606C44.6624 24.7239 46.6076 23.5603 47.5056 21.4725L40.1252 13.8774Z" fill="#E4332E"/>
<path fill-rule="evenodd" clip-rule="evenodd" d="M40.0371 21.6801V14.7998L46.7003 21.6801H40.0371Z" fill="white"/>
<path fill-rule="evenodd" clip-rule="evenodd" d="M16.543 28.0161H17.4049C17.6781 28.0161 17.9934 27.6257 17.9934 27.3652V17.9281C17.9934 17.6678 17.6781 17.299 17.4049 17.299H16.543V15.021H23.4582V17.299H22.5755C22.3023 17.299 22.008 17.6678 22.008 17.9281V27.3652C22.008 27.6257 22.3023 28.0161 22.5755 28.0161H23.4582V30.2074H16.543V28.0161Z" fill="black"/>
<path fill-rule="evenodd" clip-rule="evenodd" d="M17.6025 42.7683C19.3706 42.7683 19.8338 41.725 19.8338 40.2688C19.8338 38.834 19.3706 37.8125 17.6025 37.8125H16.3817V42.7683H17.6025ZM11.1191 48.3982H11.8348C12.1294 48.3982 12.4453 48.0069 12.4453 47.7462V38.2906C12.4453 38.0298 12.1294 37.6604 11.8348 37.6604H11.1191V35.3779H17.8129C21.7491 35.3779 23.8961 36.8125 23.8961 40.2035C23.8961 43.5075 21.6228 45.0074 17.6654 45.0074H16.4447V48.3982H18.1496V50.5936H11.1191V48.3982Z" fill="black"/>
<path fill-rule="evenodd" clip-rule="evenodd" d="M31.4956 48.2895C34.1479 48.2895 35.453 46.6594 35.453 43.0075C35.453 39.3777 34.1689 37.8126 31.4956 37.8126H30.5063V48.2895H31.4956ZM25.1807 48.3982H25.8965C26.1911 48.3982 26.5068 48.0069 26.5068 47.7462V38.2906C26.5068 38.03 26.1911 37.6604 25.8965 37.6604H25.1807V35.3779H31.6008C36.8421 35.3779 39.5785 37.7255 39.5785 42.899C39.5785 47.9854 36.7999 50.5936 31.4955 50.5936H25.1807V48.3982Z" fill="black"/>
<path fill-rule="evenodd" clip-rule="evenodd" d="M40.9248 48.3984H41.6404C41.9353 48.3984 42.2507 48.0071 42.2507 47.7463V38.2909C42.2507 38.03 41.9353 37.6606 41.6404 37.6606H40.9248V35.3782H52.9019V40.0733H50.5445L50.1866 37.8345H46.2502V42.0949H48.1658L48.3342 40.6601H50.5024V45.9423H48.3342L48.1658 44.4425H46.2502V48.3984H47.9555V50.5939H40.9248V48.3984Z" fill="black"/>
</svg>
